<svg width="73" height="73" viewBox="0 0 73 73" fill="none" xmlns="http://www.w3.org/2000/svg">
<path d="M36.5 6.08333C32.5056 6.08333 28.5504 6.87008 24.86 8.39866C21.1697 9.92724 17.8166 12.1677 14.9922 14.9922C9.28793 20.6964 6.08333 28.433 6.08333 36.5C6.08333 49.9442 14.8129 61.3504 26.8883 65.3958C28.4092 65.6392 28.8958 64.6962 28.8958 63.875V58.7346C20.4704 60.5596 18.6758 54.6587 18.6758 54.6587C17.2767 51.1304 15.2996 50.1875 15.2996 50.1875C12.5317 48.3017 15.5125 48.3625 15.5125 48.3625C18.5542 48.5754 20.1662 51.4954 20.1662 51.4954C22.8125 56.1187 27.2837 54.75 29.0175 54.02C29.2912 52.0429 30.0821 50.7046 30.9337 49.9442C24.1812 49.1837 17.0942 46.5679 17.0942 34.9792C17.0942 31.6029 18.25 28.8958 20.2271 26.7362C19.9229 25.9758 18.8583 22.8125 20.5312 18.7062C20.5312 18.7062 23.0862 17.885 28.8958 21.8087C31.2987 21.1396 33.9146 20.805 36.5 20.805C39.0854 20.805 41.7012 21.1396 44.1042 21.8087C49.9137 17.885 52.4687 18.7062 52.4687 18.7062C54.1417 22.8125 53.0771 25.9758 52.7729 26.7362C54.75 28.8958 55.9058 31.6029 55.9058 34.9792C55.9058 46.5983 48.7883 49.1533 42.0054 49.9137C43.1004 50.8567 44.1042 52.7121 44.1042 55.5408V63.875C44.1042 64.6962 44.5908 65.6696 46.1421 65.3958C58.2175 61.32 66.9167 49.9442 66.9167 36.5C66.9167 32.5056 66.1299 28.5504 64.6013 24.86C63.0728 21.1697 60.8323 17.8166 58.0078 14.9922C55.1834 12.1677 51.8303 9.92724 48.1399 8.39866C44.4496 6.87008 40.4944 6.08333 36.5 6.08333Z" fill="white"/>
</svg>
